<?xml version="1.0" encoding="UTF-8" standalone="no"?>
<!DOCTYPE svg PUBLIC "-//W3C//DTD SVG 1.1//EN" "http://www.w3.org/Graphics/SVG/1.1/DTD/svg11.dtd">
<svg width="100%" height="100%" viewBox="0 0 1080 1080" version="1.1" xmlns="http://www.w3.org/2000/svg" xmlns:xlink="http://www.w3.org/1999/xlink" xml:space="preserve" xmlns:serif="http://www.serif.com/" style="fill-rule:evenodd;clip-rule:evenodd;stroke-linejoin:round;stroke-miterlimit:2;">
    <g transform="matrix(1.18743,0,0,1.18743,17.3327,14.212)">
        <path d="M440.167,-11.969L834.004,215.413L834.004,670.177L440.167,897.559L46.33,670.177L46.33,215.413L440.167,-11.969Z" style="fill:url(#_Linear1);"/>
    </g>
    <g transform="matrix(1.18743,0,0,1.18743,-103.051,-86.108)">
        <path d="M378.962,527.28C378.962,527.28 345.778,368.51 668.934,277.621C668.174,275.735 668.934,317.696 668.934,317.696C668.934,317.696 428.014,377.24 378.962,527.28Z" style="fill:url(#_Linear2);"/>
    </g>
    <g transform="matrix(-2.18127e-16,1.18743,-1.18743,-2.18127e-16,1164.27,-101.907)">
        <path d="M378.962,527.28C378.962,527.28 345.778,368.51 668.934,277.621C668.174,275.735 668.934,317.696 668.934,317.696C668.934,317.696 428.014,377.24 378.962,527.28Z" style="fill:url(#_Linear3);"/>
    </g>
    <g transform="matrix(-1.18743,1.45418e-16,-1.45418e-16,-1.18743,1181.91,1166.11)">
        <path d="M378.962,527.28C378.962,527.28 345.778,368.51 668.934,277.621C668.174,275.735 668.934,317.696 668.934,317.696C668.934,317.696 428.014,377.24 378.962,527.28Z" style="fill:url(#_Linear4);"/>
    </g>
    <g transform="matrix(-2.18127e-16,-1.18743,1.18743,-2.18127e-16,-87.9474,1181.91)">
        <path d="M378.962,527.28C378.962,527.28 345.778,368.51 668.934,277.621C668.174,275.735 668.934,317.696 668.934,317.696C668.934,317.696 428.014,377.24 378.962,527.28Z" style="fill:url(#_Linear5);"/>
    </g>
    <g transform="matrix(1.18743,0,0,1.18743,-103.051,-86.108)">
        <path d="M541.549,364.694C631.283,364.694 704.136,437.546 704.136,527.28C704.136,617.014 631.283,689.867 541.549,689.867C451.815,689.867 378.962,617.014 378.962,527.28C378.962,437.546 451.815,364.694 541.549,364.694ZM541.549,399.896C611.855,399.896 668.934,456.975 668.934,527.28C668.934,597.586 611.855,654.665 541.549,654.665C471.244,654.665 414.165,597.586 414.165,527.28C414.165,456.975 471.244,399.896 541.549,399.896Z" style="fill:white;"/>
    </g>
    <g transform="matrix(1.18743,0,0,1.18743,-103.051,-86.108)">
        <circle cx="540" cy="527.28" r="95.069" style="fill:white;"/>
    </g>
    <defs>
        <linearGradient id="_Linear1" x1="0" y1="0" x2="1" y2="0" gradientUnits="userSpaceOnUse" gradientTransform="matrix(5.56925e-14,-909.528,909.528,5.56925e-14,440.167,897.559)"><stop offset="0" style="stop-color:rgb(169,0,255);stop-opacity:1"/><stop offset="1" style="stop-color:rgb(230,55,66);stop-opacity:1"/></linearGradient>
        <linearGradient id="_Linear2" x1="0" y1="0" x2="1" y2="0" gradientUnits="userSpaceOnUse" gradientTransform="matrix(263.295,-216.278,216.278,263.295,378.774,527.28)"><stop offset="0" style="stop-color:white;stop-opacity:1"/><stop offset="0.65" style="stop-color:rgb(244,244,244);stop-opacity:0.86"/><stop offset="0.84" style="stop-color:rgb(214,214,214);stop-opacity:0.47"/><stop offset="1" style="stop-color:rgb(179,179,179);stop-opacity:0"/></linearGradient>
        <linearGradient id="_Linear3" x1="0" y1="0" x2="1" y2="0" gradientUnits="userSpaceOnUse" gradientTransform="matrix(263.295,-216.278,216.278,263.295,378.774,527.28)"><stop offset="0" style="stop-color:white;stop-opacity:1"/><stop offset="0.65" style="stop-color:rgb(244,244,244);stop-opacity:0.86"/><stop offset="0.84" style="stop-color:rgb(214,214,214);stop-opacity:0.47"/><stop offset="1" style="stop-color:rgb(179,179,179);stop-opacity:0"/></linearGradient>
        <linearGradient id="_Linear4" x1="0" y1="0" x2="1" y2="0" gradientUnits="userSpaceOnUse" gradientTransform="matrix(263.295,-216.278,216.278,263.295,378.774,527.28)"><stop offset="0" style="stop-color:white;stop-opacity:1"/><stop offset="0.65" style="stop-color:rgb(244,244,244);stop-opacity:0.86"/><stop offset="0.84" style="stop-color:rgb(214,214,214);stop-opacity:0.47"/><stop offset="1" style="stop-color:rgb(179,179,179);stop-opacity:0"/></linearGradient>
        <linearGradient id="_Linear5" x1="0" y1="0" x2="1" y2="0" gradientUnits="userSpaceOnUse" gradientTransform="matrix(263.295,-216.278,216.278,263.295,378.774,527.28)"><stop offset="0" style="stop-color:white;stop-opacity:1"/><stop offset="0.65" style="stop-color:rgb(244,244,244);stop-opacity:0.86"/><stop offset="0.84" style="stop-color:rgb(214,214,214);stop-opacity:0.47"/><stop offset="1" style="stop-color:rgb(179,179,179);stop-opacity:0"/></linearGradient>
    </defs>
</svg>
