<svg xmlns="http://www.w3.org/2000/svg" viewBox="0 0 1920 1200" width="1920" height="1200">
	<defs>
		<linearGradient id="grd1" gradientUnits="userSpaceOnUse"  x1="316.52" y1="845.032" x2="316.52" y2="380.193">
			<stop offset="0" stop-color="#a900ff"  />
			<stop offset="1" stop-color="#e63742"  />
		</linearGradient>
		<linearGradient id="grd2" gradientUnits="userSpaceOnUse"  x1="233.33" y1="612.612" x2="367.894" y2="502.077">
			<stop offset="0" stop-color="#ffffff"  />
			<stop offset="0.65" stop-color="#f4f4f4" stop-opacity="0.86" />
			<stop offset="0.84" stop-color="#d6d6d6" stop-opacity="0.47" />
			<stop offset="1" stop-color="#b3b3b3" stop-opacity="0" />
		</linearGradient>
		<linearGradient id="grd3" gradientUnits="userSpaceOnUse"  x1="315.729" y1="529.914" x2="426.264" y2="664.478">
			<stop offset="0" stop-color="#ffffff"  />
			<stop offset="0.65" stop-color="#f4f4f4" stop-opacity="0.86" />
			<stop offset="0.84" stop-color="#d6d6d6" stop-opacity="0.47" />
			<stop offset="1" stop-color="#b3b3b3" stop-opacity="0" />
		</linearGradient>
		<linearGradient id="grd4" gradientUnits="userSpaceOnUse"  x1="399.219" y1="612.612" x2="264.655" y2="723.147">
			<stop offset="0" stop-color="#ffffff"  />
			<stop offset="0.65" stop-color="#f4f4f4" stop-opacity="0.86" />
			<stop offset="0.84" stop-color="#d6d6d6" stop-opacity="0.47" />
			<stop offset="1" stop-color="#b3b3b3" stop-opacity="0" />
		</linearGradient>
		<linearGradient id="grd5" gradientUnits="userSpaceOnUse"  x1="315.728" y1="695.311" x2="205.194" y2="560.747">
			<stop offset="0" stop-color="#ffffff"  />
			<stop offset="0.65" stop-color="#f4f4f4" stop-opacity="0.86" />
			<stop offset="0.84" stop-color="#d6d6d6" stop-opacity="0.47" />
			<stop offset="1" stop-color="#b3b3b3" stop-opacity="0" />
		</linearGradient>
		<linearGradient id="grd6" gradientUnits="userSpaceOnUse"  x1="716.42" y1="624.018" x2="1888.569" y2="624.018">
			<stop offset="0" stop-color="#aa01fc"  />
			<stop offset="1" stop-color="#e53644"  />
		</linearGradient>
	</defs>
	<style>
		tspan { white-space:pre }
		.shp0 { fill: url(#grd1) } 
		.shp1 { fill: url(#grd2) } 
		.shp2 { fill: url(#grd3) } 
		.shp3 { fill: url(#grd4) } 
		.shp4 { fill: url(#grd5) } 
		.shp5 { fill: #ffffff } 
		.shp6 { fill: url(#grd6) } 
	</style>
	<g id="Layer">
		<g id="Layer">
			<path id="Layer" fill-rule="evenodd" class="shp0" d="M316.52 380.19L517.8 496.4L517.8 728.82L316.52 845.03L115.24 728.82L115.24 496.4L316.52 380.19Z" />
		</g>
		<g id="Layer">
			<path id="Layer" fill-rule="evenodd" class="shp1" d="M233.43 612.61C233.43 612.61 216.47 531.47 381.62 485.02C381.24 484.05 381.62 505.5 381.62 505.5C381.62 505.5 258.49 535.93 233.43 612.61Z" />
		</g>
		<g id="Layer">
			<path id="Layer" fill-rule="evenodd" class="shp2" d="M315.73 530.01C315.73 530.01 396.87 513.05 443.32 678.21C444.29 677.82 422.84 678.21 422.84 678.21C422.84 678.21 392.41 555.08 315.73 530.01Z" />
		</g>
		<g id="Layer">
			<path id="Layer" fill-rule="evenodd" class="shp3" d="M399.12 612.61C399.12 612.61 416.08 693.76 250.92 740.21C251.31 741.17 250.92 719.73 250.92 719.73C250.92 719.73 374.05 689.29 399.12 612.61Z" />
		</g>
		<g id="Layer">
			<path id="Layer" fill-rule="evenodd" class="shp4" d="M315.73 695.21C315.73 695.21 234.58 712.17 188.13 547.02C187.17 547.41 208.61 547.02 208.61 547.02C208.61 547.02 239.05 670.15 315.73 695.21Z" />
		</g>
		<g id="Layer">
			<path id="Layer" fill-rule="evenodd" class="shp5" d="M316.52 529.52C362.38 529.52 399.61 566.75 399.61 612.61C399.61 658.47 362.38 695.71 316.52 695.71C270.66 695.71 233.43 658.47 233.43 612.61C233.43 566.75 270.66 529.52 316.52 529.52ZM251.42 612.61C251.42 648.54 280.59 677.72 316.52 677.72C352.45 677.72 381.62 648.54 381.62 612.61C381.62 576.68 352.45 547.51 316.52 547.51C280.59 547.51 251.42 576.68 251.42 612.61Z" />
		</g>
		<g id="Layer">
			<path id="Layer" class="shp5" d="M315.73 661.2C288.86 661.2 267.14 639.48 267.14 612.61C267.14 585.74 288.86 564.02 315.73 564.02C342.6 564.02 364.32 585.74 364.32 612.61C364.32 639.48 342.6 661.2 315.73 661.2Z" />
		</g>
	</g>
	<g id="Layer">
		<path id="Vortex " fill-rule="evenodd" class="shp6" d="M868.16 494.5L933.26 494.5L833.61 727L768.85 727L669.53 494.5L740.61 494.5L803.72 645.96L868.16 494.5ZM1020.95 729.99C1001.68 729.99 984.3 726 968.8 718.03C953.3 710.06 941.12 698.99 932.26 684.82C923.63 670.65 919.31 654.59 919.31 636.66C919.31 618.94 923.63 603 932.26 588.83C941.12 574.66 953.19 563.69 968.47 555.94C983.97 547.97 1001.46 543.99 1020.95 543.99C1040.43 543.99 1057.93 547.97 1073.43 555.94C1088.93 563.69 1100.99 574.66 1109.63 588.83C1118.27 602.78 1122.58 618.72 1122.58 636.66C1122.58 654.59 1118.27 670.65 1109.63 684.82C1100.99 698.99 1088.93 710.06 1073.43 718.03C1057.93 726 1040.43 729.99 1020.95 729.99ZM1020.95 679.84C1032.02 679.84 1041.1 676.07 1048.18 668.54C1055.27 660.79 1058.81 650.16 1058.81 636.66C1058.81 623.37 1055.27 612.96 1048.18 605.43C1041.1 597.91 1032.02 594.14 1020.95 594.14C1009.87 594.14 1000.8 597.91 993.71 605.43C986.62 612.96 983.08 623.37 983.08 636.66C983.08 650.16 986.62 660.79 993.71 668.54C1000.8 676.07 1009.87 679.84 1020.95 679.84ZM1211.93 568.57C1218.35 560.37 1226.66 554.28 1236.84 550.3C1247.25 546.09 1259.1 543.99 1272.38 543.99L1272.38 600.78C1266.62 600.12 1261.86 599.79 1258.1 599.79C1244.59 599.79 1233.96 603.44 1226.21 610.75C1218.68 618.06 1214.92 629.24 1214.92 644.3L1214.92 727L1151.81 727L1151.81 546.98L1211.93 546.98L1211.93 568.57ZM1412.55 675.52L1428.16 719.69C1422.84 723.01 1416.31 725.56 1408.56 727.33C1401.03 729.1 1392.95 729.99 1384.32 729.99C1360.84 729.99 1342.8 724.23 1330.18 712.72C1317.55 701.2 1311.24 684.04 1311.24 661.23L1311.24 600.78L1285 600.78L1285 553.62L1311.24 553.62L1311.24 506.79L1374.35 506.79L1374.35 553.62L1415.54 553.62L1415.54 600.78L1374.35 600.78L1374.35 660.57C1374.35 666.99 1376.01 672.08 1379.33 675.85C1382.88 679.39 1387.53 681.16 1393.28 681.16C1400.59 681.16 1407.01 679.28 1412.55 675.52ZM1631.1 637.32C1631.1 637.76 1630.77 642.97 1630.1 652.93L1499.24 652.93C1501.9 662.23 1506.99 669.43 1514.52 674.52C1522.27 679.39 1531.9 681.83 1543.41 681.83C1552.05 681.83 1559.47 680.61 1565.67 678.17C1572.09 675.74 1578.51 671.75 1584.93 666.22L1618.15 700.76C1600.65 720.25 1575.08 729.99 1541.42 729.99C1520.39 729.99 1501.9 726 1485.95 718.03C1470.01 710.06 1457.61 698.99 1448.75 684.82C1440.12 670.65 1435.8 654.59 1435.8 636.66C1435.8 618.94 1440.01 603.11 1448.42 589.16C1457.06 574.99 1468.9 563.92 1483.96 555.94C1499.02 547.97 1515.96 543.99 1534.78 543.99C1552.71 543.99 1568.99 547.75 1583.6 555.28C1598.22 562.59 1609.73 573.33 1618.15 587.5C1626.78 601.45 1631.1 618.06 1631.1 637.32ZM1535.11 588.83C1525.37 588.83 1517.17 591.59 1510.53 597.13C1504.11 602.67 1500.01 610.19 1498.24 619.72L1571.98 619.72C1570.21 610.19 1566 602.67 1559.36 597.13C1552.94 591.59 1544.85 588.83 1535.11 588.83ZM1841.68 727L1769.61 727L1737.39 679.84L1702.84 727L1634.42 727L1702.84 636.99L1636.42 546.98L1707.5 546.98L1739.38 592.48L1772.6 546.98L1839.36 546.98L1772.93 634.66L1841.68 727Z" />
	</g>
</svg>