<?xml version="1.0" standalone="no"?>
<!DOCTYPE svg PUBLIC "-//W3C//DTD SVG 20010904//EN"
 "http://www.w3.org/TR/2001/REC-SVG-20010904/DTD/svg10.dtd">
<svg version="1.0" xmlns="http://www.w3.org/2000/svg"
 width="1080.000000pt" height="1080.000000pt" viewBox="0 0 1080.000000 1080.000000"
 preserveAspectRatio="xMidYMid meet">
<metadata>
Created by potrace 1.11, written by Peter Selinger 2001-2013
</metadata>
<g transform="translate(0.000000,1080.000000) scale(0.100000,-0.100000)"
fill="#000000" stroke="none">
<path d="M0 5400 l0 -5400 5400 0 5400 0 0 5400 0 5400 -5400 0 -5400 0 0
-5400z m5830 2584 c56 -30 101 -81 126 -139 22 -54 20 -154 -6 -212 -17 -40
-259 -286 -1373 -1401 -1092 -1093 -1362 -1358 -1403 -1378 -39 -19 -67 -25
-117 -25 -108 0 -190 48 -243 143 -39 71 -41 178 -5 248 16 32 419 441 1364
1388 738 739 1357 1352 1376 1364 91 57 191 61 281 12z m425 -1592 c136 -69
190 -235 121 -369 -18 -36 -364 -387 -1378 -1400 -747 -746 -1369 -1359 -1388
-1369 -53 -26 -160 -31 -217 -9 -144 55 -216 229 -154 371 18 41 240 267 1369
1397 1505 1506 1403 1413 1537 1404 44 -2 85 -12 110 -25z m1607 -443 c51 -27
95 -70 124 -121 39 -71 41 -178 5 -248 -33 -65 -2695 -2728 -2765 -2767 -43
-24 -63 -28 -126 -28 -64 0 -83 4 -128 29 -58 32 -103 83 -128 141 -22 54 -20
154 6 212 17 40 258 286 1368 1396 741 742 1366 1360 1389 1373 69 42 189 48
255 13z"/>
</g>
</svg>
