<?xml version="1.0" encoding="UTF-8" standalone="no"?>
<!DOCTYPE svg PUBLIC "-//W3C//DTD SVG 1.1//EN" "http://www.w3.org/Graphics/SVG/1.1/DTD/svg11.dtd">
<svg width="100%" height="100%" viewBox="0 0 1080 1080" version="1.1" xmlns="http://www.w3.org/2000/svg" xmlns:xlink="http://www.w3.org/1999/xlink" xml:space="preserve" xmlns:serif="http://www.serif.com/" style="fill-rule:evenodd;clip-rule:evenodd;stroke-linejoin:round;stroke-miterlimit:2;">
    <g transform="matrix(1.3247,0,0,1.3247,-175.337,-175.337)">
        <path d="M947.64,336.18C947.64,223.689 856.311,132.36 743.82,132.36L336.18,132.36C223.689,132.36 132.36,223.689 132.36,336.18L132.36,743.82C132.36,856.311 223.689,947.64 336.18,947.64L743.82,947.64C856.311,947.64 947.64,856.311 947.64,743.82L947.64,336.18Z" style="fill:url(#_Linear1);"/>
    </g>
    <g transform="matrix(1.3247,0,0,1.3247,-145.354,-76.8046)">
        <path d="M525.269,273.926L325.673,473.522C317.542,481.652 317.542,494.854 325.673,502.984C333.803,511.115 347.005,511.115 355.136,502.984L554.731,303.388C562.862,295.258 562.862,282.056 554.731,273.926C546.601,265.795 533.399,265.795 525.269,273.926Z" style="fill:rgb(250,250,250);"/>
    </g>
    <g transform="matrix(1.3247,0,0,1.3247,-102.029,82.99)">
        <path d="M525.269,273.926L325.673,473.522C317.542,481.652 317.542,494.854 325.673,502.984C333.803,511.115 347.005,511.115 355.136,502.984L554.731,303.388C562.862,295.258 562.862,282.056 554.731,273.926C546.601,265.795 533.399,265.795 525.269,273.926Z" style="fill:rgb(250,250,250);"/>
    </g>
    <g transform="matrix(1.3247,0,0,1.3247,59.0843,127.634)">
        <path d="M525.269,273.926L325.673,473.522C317.542,481.652 317.542,494.854 325.673,502.984C333.803,511.115 347.005,511.115 355.136,502.984L554.731,303.388C562.862,295.258 562.862,282.056 554.731,273.926C546.601,265.795 533.399,265.795 525.269,273.926Z" style="fill:rgb(250,250,250);"/>
    </g>
    <defs>
        <linearGradient id="_Linear1" x1="0" y1="0" x2="1" y2="0" gradientUnits="userSpaceOnUse" gradientTransform="matrix(815.28,-815.28,815.28,815.28,132.36,947.64)"><stop offset="0" style="stop-color:rgb(59,40,204);stop-opacity:1"/><stop offset="1" style="stop-color:rgb(115,29,216);stop-opacity:1"/></linearGradient>
    </defs>
</svg>
